<svg id="Ebene_1" data-name="Ebene 1" xmlns="http://www.w3.org/2000/svg" viewBox="0 0 237.58 73.71"><defs><style>.cls-1{fill:#005380;}.cls-2{fill:#ed7703;}.cls-3{fill:#fff;}</style></defs><title>ZLI_Logo_Schriftzug_RGB_zugeschnitten</title><path class="cls-1" d="M27.85,35.46c3.09,0,4.75,1.66,4.75,4.15s-1.66,4.14-4.75,4.14H8c-4.81,0-6.3-2-6.3-4.92,0-1.55.61-2.49,1.66-3.93L20.27,12.34H7.05c-3.1,0-4.75-1.66-4.75-4s1.65-4,4.75-4H26.3c4.75,0,5.47,2.93,5.47,4.48,0,1.87-1.66,4.14-4.2,7.52L13.25,35.46Z" transform="translate(-1.69 -1.41)"/><path class="cls-1" d="M36,8.79C36,5.64,37.86,4,40.46,4s4.48,1.6,4.48,4.75V35.45h9.62C57.38,35.45,59,37,59,39.6s-1.66,4.15-4.48,4.15H40.46A4.33,4.33,0,0,1,36,39.27Z" transform="translate(-1.69 -1.41)"/><path class="cls-1" d="M71.7,8.5a4.47,4.47,0,0,0-8.94,0h0V39.3h0a4.47,4.47,0,0,0,8.93,0V8.5Z" transform="translate(-1.69 -1.41)"/><path class="cls-2" d="M94.38,34c5.42,0,11.89,1.55,11.89,6.25a4.08,4.08,0,0,1-3.88,4.26c-2.1,0-4.31-1.88-7.79-1.88-7.25,0-10.12,5.86-10.12,11.95,0,6.25,3.2,11.61,9.34,11.61,5.59,0,6.47-1.82,8.8-1.82,3.53,0,4,3,4,4.15,0,4.92-7.47,6.63-12.39,6.63-12.39,0-19.36-9.29-19.36-20.57C74.85,42.6,82.54,34,94.38,34Z" transform="translate(-1.69 -1.41)"/><path class="cls-2" d="M118.38,43.15h-5c-3,0-4.65-1.65-4.65-4.14s1.66-4.15,4.65-4.15h19c3,0,4.65,1.55,4.65,4.15s-1.66,4.14-4.65,4.14h-5V69.81c0,3.15-1.88,4.76-4.48,4.76s-4.48-1.61-4.48-4.76Z" transform="translate(-1.69 -1.41)"/><path class="cls-2" d="M71.7,39.28a4.47,4.47,0,1,0-8.94,0h0v30.8h0a4.47,4.47,0,0,0,8.93,0V39.28Z" transform="translate(-1.69 -1.41)"/><path class="cls-1" d="M85,13.07a1,1,0,0,1,1.08,1,1.06,1.06,0,0,1-1.08,1H79.12c-.8,0-1.26-.45-1.26-1.08a1.46,1.46,0,0,1,.3-.87L83,6.35H79a1,1,0,0,1-1.05-1,1,1,0,0,1,1.05-1h5.49a1.12,1.12,0,0,1,1.26,1.08,1.66,1.66,0,0,1-.33,1l-4.8,6.66Z" transform="translate(-1.69 -1.41)"/><path class="cls-1" d="M87.1,5.45a1.13,1.13,0,1,1,2.25,0v5.23a2.3,2.3,0,0,0,2.31,2.48A2.36,2.36,0,0,0,94,10.68V5.45a1.13,1.13,0,1,1,2.25,0V10.8a4.55,4.55,0,0,1-9.1,0Zm2.91-4a1.08,1.08,0,1,1-1.08,1.08A1.08,1.08,0,0,1,90,1.41Zm3.3,0a1.08,1.08,0,1,1-1.08,1.08A1.08,1.08,0,0,1,93.31,1.41Z" transform="translate(-1.69 -1.41)"/><path class="cls-1" d="M98,5.54A1.07,1.07,0,0,1,99.2,4.37h2.64c2.31,0,3.73,1,3.73,3.39a2.9,2.9,0,0,1-2.77,2.83l2.55,2.73a1,1,0,0,1,.3.66,1.15,1.15,0,0,1-1.13,1.16,1.18,1.18,0,0,1-.87-.39l-3.33-4h0V14A1.13,1.13,0,1,1,98,14Zm2.25,3.55h1.55a1.27,1.27,0,0,0,1.39-1.33,1.25,1.25,0,0,0-1.39-1.32h-1.55Z" transform="translate(-1.69 -1.41)"/><path class="cls-1" d="M111.58,4.19c1.1,0,3.22.36,3.22,1.68a1,1,0,0,1-.93,1c-.61,0-1-.52-2.29-.52-1.86,0-2.82,1.57-2.82,3.4s1,3.32,2.82,3.32c1.26,0,1.77-.63,2.38-.63a1,1,0,0,1,1,1c0,1.44-2.26,1.77-3.37,1.77a5.19,5.19,0,0,1-5.16-5.52C106.42,6.59,108.52,4.19,111.58,4.19Z" transform="translate(-1.69 -1.41)"/><path class="cls-1" d="M116.3,5.45a1.13,1.13,0,1,1,2.25,0V8.63h4.71V5.45a1.13,1.13,0,1,1,2.25,0V14a1.13,1.13,0,1,1-2.25,0V10.7h-4.71V14a1.13,1.13,0,1,1-2.25,0Z" transform="translate(-1.69 -1.41)"/><path class="cls-1" d="M127.44,5.67c0-.75.37-1.3,1.17-1.3h3.72a1,1,0,0,1,1.06,1,1,1,0,0,1-1.06,1h-2.64V8.63h2.46a1,1,0,0,1,1.09,1,1,1,0,0,1-1.09,1h-2.46V13h2.77a1,1,0,0,1,1.07,1,1,1,0,0,1-1.07,1h-3.87a1.09,1.09,0,0,1-1.15-1.13Z" transform="translate(-1.69 -1.41)"/><path class="cls-1" d="M134.9,5.54a1.07,1.07,0,0,1,1.16-1.17h2.64c2.31,0,3.73,1,3.73,3.39a2.9,2.9,0,0,1-2.77,2.83l2.55,2.73a1,1,0,0,1,.3.66,1.15,1.15,0,0,1-1.13,1.16,1.18,1.18,0,0,1-.87-.39l-3.33-4h0V14a1.13,1.13,0,1,1-2.25,0Zm2.25,3.55h1.55a1.27,1.27,0,0,0,1.39-1.33,1.25,1.25,0,0,0-1.39-1.32h-1.55Z" transform="translate(-1.69 -1.41)"/><path class="cls-1" d="M78.2,19.25a1.13,1.13,0,1,1,2.25,0v7.53h2.67a1,1,0,0,1,1.08,1.08,1.05,1.05,0,0,1-1.08,1H79.37a1.11,1.11,0,0,1-1.17-1.23Z" transform="translate(-1.69 -1.41)"/><path class="cls-1" d="M85.1,19.47a1.14,1.14,0,0,1,1.17-1.3H90a1,1,0,0,1,1.07,1,1,1,0,0,1-1.07,1H87.35v2.19h2.46a1,1,0,0,1,1.1,1,1,1,0,0,1-1.1,1H87.35v2.28h2.77a1,1,0,0,1,1.07,1,1,1,0,0,1-1.07,1H86.26a1.1,1.1,0,0,1-1.16-1.13Z" transform="translate(-1.69 -1.41)"/><path class="cls-1" d="M92.59,19.25a1.13,1.13,0,1,1,2.25,0v3.18h4.71V19.25a1.13,1.13,0,1,1,2.25,0v8.52a1.13,1.13,0,1,1-2.25,0V24.5H94.84v3.27a1.13,1.13,0,1,1-2.25,0Z" transform="translate(-1.69 -1.41)"/><path class="cls-1" d="M103.73,19.34a1.07,1.07,0,0,1,1.16-1.17h2.63c2.32,0,3.74,1,3.74,3.39a2.9,2.9,0,0,1-2.77,2.83L111,27.12a1,1,0,0,1,.31.66,1.15,1.15,0,0,1-1.13,1.16,1.18,1.18,0,0,1-.87-.39l-3.33-4h0v3.26a1.13,1.13,0,1,1-2.25,0ZM106,22.89h1.54a1.27,1.27,0,0,0,1.4-1.33,1.26,1.26,0,0,0-1.4-1.32H106Z" transform="translate(-1.69 -1.41)"/><path class="cls-1" d="M112.68,19.29a1.07,1.07,0,0,1,1.18-1.12h2.88a2.65,2.65,0,0,1,2.82,2.64,2.21,2.21,0,0,1-1.39,2.2v0a2.62,2.62,0,0,1,2.28,2.55c0,2.12-1.41,3.26-3.48,3.26h-3.09a1.11,1.11,0,0,1-1.2-1.14Zm2.25,3.11h1.17a1.11,1.11,0,0,0,1.21-1.19,1.08,1.08,0,0,0-1.21-1.06h-1.17Zm0,4.47h1.77a1.28,1.28,0,0,0,1.41-1.31c0-.7-.54-1.18-1.59-1.18h-1.59Z" transform="translate(-1.69 -1.41)"/><path class="cls-1" d="M121.78,19.47a1.14,1.14,0,0,1,1.17-1.3h3.73a1,1,0,0,1,1.06,1,1,1,0,0,1-1.06,1H124v2.19h2.47a1,1,0,0,1,1.09,1,1,1,0,0,1-1.09,1H124v2.28h2.78a1,1,0,0,1,1.06,1,1,1,0,0,1-1.06,1h-3.87a1.1,1.1,0,0,1-1.16-1.13Z" transform="translate(-1.69 -1.41)"/><path class="cls-1" d="M131.17,20.24h-1.63a1,1,0,0,1-1-1,1,1,0,0,1,1-1h5.52a1,1,0,0,1,1,1,1,1,0,0,1-1,1h-1.64v7.53a1.13,1.13,0,1,1-2.25,0Z" transform="translate(-1.69 -1.41)"/><path class="cls-1" d="M137,19.34a1.07,1.07,0,0,1,1.16-1.17h2.64c2.31,0,3.74,1,3.74,3.39a2.91,2.91,0,0,1-2.78,2.83l2.55,2.73a1,1,0,0,1,.3.66,1.15,1.15,0,0,1-1.12,1.16,1.16,1.16,0,0,1-.87-.39l-3.33-4h0v3.26a1.07,1.07,0,0,1-1.12,1.17A1.08,1.08,0,0,1,137,27.77Zm2.25,3.55h1.55a1.27,1.27,0,0,0,1.4-1.33,1.26,1.26,0,0,0-1.4-1.32h-1.55Z" transform="translate(-1.69 -1.41)"/><path class="cls-1" d="M146,19.25a1.13,1.13,0,1,1,2.25,0v8.52a1.13,1.13,0,1,1-2.25,0Z" transform="translate(-1.69 -1.41)"/><path class="cls-1" d="M150.16,19.47c0-.75.37-1.3,1.17-1.3h3.72a1,1,0,0,1,1.06,1,1,1,0,0,1-1.06,1h-2.64v2.19h2.46a1,1,0,0,1,1.09,1,1,1,0,0,1-1.09,1h-2.46v2.28h2.77a1,1,0,0,1,1.07,1,1,1,0,0,1-1.07,1h-3.87a1.09,1.09,0,0,1-1.15-1.13Z" transform="translate(-1.69 -1.41)"/><path class="cls-1" d="M157.62,19.29a1.07,1.07,0,0,1,1.19-1.12h2.87a2.65,2.65,0,0,1,2.83,2.64,2.21,2.21,0,0,1-1.4,2.2v0a2.62,2.62,0,0,1,2.28,2.55c0,2.12-1.41,3.26-3.48,3.26h-3.09a1.11,1.11,0,0,1-1.2-1.14Zm2.25,3.11H161a1.12,1.12,0,0,0,1.22-1.19A1.09,1.09,0,0,0,161,20.15h-1.17Zm0,4.47h1.77a1.28,1.28,0,0,0,1.41-1.31c0-.7-.54-1.18-1.59-1.18h-1.59Z" transform="translate(-1.69 -1.41)"/><path class="cls-1" d="M172.93,19.49a1,1,0,0,1-1,1.11c-.62,0-1.1-.45-2-.45-.64,0-1.23.34-1.23,1,0,1.55,5,.56,5,4.43A3.57,3.57,0,0,1,169.87,29c-1.15,0-3.64-.27-3.64-1.68a1,1,0,0,1,1-1.07c.71,0,1.55.59,2.52.59s1.53-.56,1.53-1.29c0-1.77-5-.71-5-4.19A3.47,3.47,0,0,1,170,18C170.83,18,172.93,18.3,172.93,19.49Z" transform="translate(-1.69 -1.41)"/><path class="cls-1" d="M174.25,19.71a1.29,1.29,0,0,1-.11-.55,1.13,1.13,0,0,1,2.18-.35l2.32,6.24L181,18.81a1.12,1.12,0,0,1,2.17.35,1.45,1.45,0,0,1-.1.55l-3.29,8.36a1.12,1.12,0,0,1-1.11.87c-.66,0-.91-.39-1.11-.87Z" transform="translate(-1.69 -1.41)"/><path class="cls-1" d="M184.16,19.47c0-.75.37-1.3,1.17-1.3h3.72a1,1,0,0,1,1.06,1,1,1,0,0,1-1.06,1h-2.64v2.19h2.46a1,1,0,0,1,1.09,1,1,1,0,0,1-1.09,1h-2.46v2.28h2.77a1,1,0,0,1,1.07,1,1,1,0,0,1-1.07,1h-3.87a1.09,1.09,0,0,1-1.15-1.13Z" transform="translate(-1.69 -1.41)"/><path class="cls-1" d="M191.62,19.34a1.07,1.07,0,0,1,1.16-1.17h2.64c2.31,0,3.73,1,3.73,3.39a2.9,2.9,0,0,1-2.77,2.83l2.55,2.73a1,1,0,0,1,.3.66,1.15,1.15,0,0,1-1.13,1.16,1.18,1.18,0,0,1-.87-.39l-3.33-4h0v3.26a1.13,1.13,0,1,1-2.25,0Zm2.25,3.55h1.55a1.27,1.27,0,0,0,1.39-1.33,1.25,1.25,0,0,0-1.39-1.32h-1.55Z" transform="translate(-1.69 -1.41)"/><path class="cls-1" d="M200.57,19.29a1.08,1.08,0,0,1,1.19-1.12h2.88a2.65,2.65,0,0,1,2.82,2.64,2.21,2.21,0,0,1-1.4,2.2v0a2.61,2.61,0,0,1,2.28,2.55c0,2.12-1.41,3.26-3.48,3.26h-3.09a1.11,1.11,0,0,1-1.2-1.14Zm2.25,3.11H204a1.12,1.12,0,0,0,1.22-1.19A1.09,1.09,0,0,0,204,20.15h-1.17Zm0,4.47h1.77A1.28,1.28,0,0,0,206,25.56c0-.7-.54-1.18-1.59-1.18h-1.59Z" transform="translate(-1.69 -1.41)"/><path class="cls-1" d="M212.07,19.23A1.77,1.77,0,0,1,213.68,18a1.7,1.7,0,0,1,1.6,1.24l2.94,8.16a1.75,1.75,0,0,1,.12.56,1,1,0,0,1-1,1,1.05,1.05,0,0,1-1.09-.78l-.45-1.41h-4.17l-.45,1.39a1,1,0,0,1-1.08.8A1.08,1.08,0,0,1,209,27.89a1.37,1.37,0,0,1,.1-.5Zm.16,5.45h2.86l-1.4-4.35h0Z" transform="translate(-1.69 -1.41)"/><path class="cls-1" d="M219.35,19.25a1.08,1.08,0,0,1,1.13-1.17,1.41,1.41,0,0,1,1,.49l4.75,6.35h0V19.25a1.13,1.13,0,1,1,2.25,0v8.52a1.07,1.07,0,0,1-1.12,1.17,1.44,1.44,0,0,1-1-.5l-4.75-6.27h0v5.6a1.13,1.13,0,1,1-2.25,0Z" transform="translate(-1.69 -1.41)"/><path class="cls-1" d="M230.34,19.32a1.1,1.1,0,0,1,1.16-1.15H234c3.36,0,5.28,2.16,5.28,5.49a4.85,4.85,0,0,1-5.13,5.19h-2.61a1.1,1.1,0,0,1-1.19-1.13Zm2.25,7.46h1.52c1.93,0,2.82-1.43,2.82-3.23s-.9-3.31-3-3.31h-1.37Z" transform="translate(-1.69 -1.41)"/><path class="cls-3" d="M67.22,34.81a4.47,4.47,0,1,1-4.46,4.47,4.44,4.44,0,0,1,4.46-4.47" transform="translate(-1.69 -1.41)"/></svg>